<svg width="152" height="44" viewBox="0 0 152 44" fill="none" xmlns="http://www.w3.org/2000/svg">
<path d="M2 11C2 7.96243 4.46243 5.5 7.5 5.5H16.1538C22.6963 5.5 28 10.8037 28 17.3462V25.5C28 32.6797 22.1797 38.5 15 38.5V38.5C7.8203 38.5 2 32.6797 2 25.5V11Z" fill="#EBEBEB"/>
<path fill-rule="evenodd" clip-rule="evenodd" d="M8.64807 20.4818C7.83575 19.9063 6.89554 19.5 5.90001 19.5V19.5C3.74609 19.5 2 21.2461 2 23.4V25.5C2 32.6797 7.8203 38.5 15 38.5C22.1797 38.5 28 32.6797 28 25.5V23.4C28 21.2461 26.2539 19.5 24.1 19.5V19.5C23.1045 19.5 22.1643 19.9063 21.3519 20.4818C19.5578 21.7529 17.3661 22.5 15 22.5C12.6339 22.5 10.4422 21.7529 8.64807 20.4818Z" fill="url(#paint0_linear_445_1255)"/>
<path d="M38.604 33V10.587H47.16C51.531 10.587 54.197 12.819 54.197 16.508C54.197 19.081 53.081 20.817 50.849 21.747C53.329 22.553 54.6 24.351 54.6 27.017C54.6 30.737 51.903 33 47.47 33H38.604ZM46.974 13.284H41.642V20.476H47.16C49.671 20.476 51.097 19.112 51.097 16.787C51.097 14.555 49.609 13.284 46.974 13.284ZM47.408 23.111H41.642V30.303H47.408C50.012 30.303 51.469 28.97 51.469 26.645C51.469 24.413 49.981 23.111 47.408 23.111ZM66.5868 17.717V20.383H65.2848C62.5258 20.383 60.8208 22.057 60.8208 24.971V33H57.9068V17.872H60.6348L60.8208 20.166C61.4408 18.585 62.9598 17.531 65.0368 17.531C65.5638 17.531 65.9978 17.593 66.5868 17.717ZM70.7459 14.245C69.6919 14.245 68.8239 13.377 68.8239 12.323C68.8239 11.238 69.6919 10.401 70.7459 10.401C71.7999 10.401 72.6679 11.238 72.6679 12.323C72.6679 13.377 71.7999 14.245 70.7459 14.245ZM69.3199 33V17.841H72.2339V33H69.3199ZM75.5034 25.033C75.5034 20.755 78.2624 17.407 82.6644 17.407C85.1134 17.407 87.0044 18.523 87.9654 20.414L88.1824 17.841H90.7864V32.38C90.7864 37.154 87.8414 40.192 83.1914 40.192C79.0684 40.192 76.2474 37.867 75.6894 34.023H78.6034C78.9754 36.255 80.6494 37.557 83.1914 37.557C86.0434 37.557 87.9034 35.697 87.9034 32.814V29.776C86.9114 31.543 84.9274 32.597 82.5404 32.597C78.2314 32.597 75.5034 29.28 75.5034 25.033ZM78.4174 24.971C78.4174 27.823 80.1844 30.055 83.0364 30.055C85.9814 30.055 87.7794 27.947 87.7794 24.971C87.7794 22.057 86.0434 19.949 83.0674 19.949C80.1534 19.949 78.4174 22.181 78.4174 24.971ZM97.9058 32.969H94.9918V10.184H97.9058V20.166C98.8668 18.523 100.696 17.407 103.052 17.407C106.927 17.407 108.787 19.856 108.787 23.731V33H105.873V24.382C105.873 21.313 104.416 20.073 102.246 20.073C99.4248 20.073 97.9058 22.119 97.9058 24.723V32.969ZM117.101 33H114.187V20.29H111.211V17.841H114.187V13.098H117.101V17.841H120.077V20.29H117.101V33Z" fill="black"/>
<path d="M38.604 33H38.104C38.104 33.2761 38.3279 33.5 38.604 33.5V33ZM38.604 10.587V10.087C38.3279 10.087 38.104 10.3109 38.104 10.587H38.604ZM50.849 21.747L50.6567 21.2855C50.4636 21.3659 50.341 21.5581 50.3494 21.7671C50.3578 21.9762 50.4955 22.1579 50.6945 22.2225L50.849 21.747ZM41.642 13.284V12.784C41.3659 12.784 41.142 13.0079 41.142 13.284H41.642ZM41.642 20.476H41.142C41.142 20.7521 41.3659 20.976 41.642 20.976V20.476ZM41.642 23.111V22.611C41.3659 22.611 41.142 22.8349 41.142 23.111H41.642ZM41.642 30.303H41.142C41.142 30.5791 41.3659 30.803 41.642 30.803V30.303ZM39.104 33V10.587H38.104V33H39.104ZM38.604 11.087H47.16V10.087H38.604V11.087ZM47.16 11.087C49.2657 11.087 50.8985 11.6247 51.996 12.5469C53.0827 13.46 53.697 14.7932 53.697 16.508H54.697C54.697 14.5338 53.9783 12.9065 52.6393 11.7813C51.311 10.6653 49.4253 10.087 47.16 10.087V11.087ZM53.697 16.508C53.697 17.722 53.4342 18.7001 52.9389 19.4741C52.4448 20.2461 51.6954 20.8527 50.6567 21.2855L51.0413 22.2085C52.2346 21.7113 53.1592 20.9849 53.7811 20.0132C54.4018 19.0434 54.697 17.867 54.697 16.508H53.697ZM50.6945 22.2225C51.8523 22.5988 52.6925 23.1938 53.2469 23.9741C53.8022 24.7556 54.1 25.7641 54.1 27.017H55.1C55.1 25.6039 54.7623 24.3804 54.0621 23.3949C53.361 22.4082 52.3257 21.7012 51.0035 21.2715L50.6945 22.2225ZM54.1 27.017C54.1 28.7469 53.4783 30.0955 52.376 31.0205C51.2629 31.9545 49.6067 32.5 47.47 32.5V33.5C49.7663 33.5 51.6751 32.914 53.0188 31.7865C54.3732 30.65 55.1 29.0071 55.1 27.017H54.1ZM47.47 32.5H38.604V33.5H47.47V32.5ZM46.974 12.784H41.642V13.784H46.974V12.784ZM41.142 13.284V20.476H42.142V13.284H41.142ZM41.642 20.976H47.16V19.976H41.642V20.976ZM47.16 20.976C48.5028 20.976 49.6243 20.6104 50.413 19.8673C51.2058 19.1203 51.597 18.0535 51.597 16.787H50.597C50.597 17.8455 50.2752 18.6232 49.7272 19.1395C49.1752 19.6596 48.3282 19.976 47.16 19.976V20.976ZM51.597 16.787C51.597 15.5532 51.1809 14.5266 50.3476 13.8177C49.5264 13.119 48.3648 12.784 46.974 12.784V13.784C48.2182 13.784 49.1181 14.0845 49.6996 14.5793C50.2691 15.0639 50.597 15.7888 50.597 16.787H51.597ZM47.408 22.611H41.642V23.611H47.408V22.611ZM41.142 23.111V30.303H42.142V23.111H41.142ZM41.642 30.803H47.408V29.803H41.642V30.803ZM47.408 30.803C48.7901 30.803 49.9407 30.4491 50.7504 29.7167C51.5675 28.9776 51.969 27.9152 51.969 26.645H50.969C50.969 27.6998 50.642 28.4664 50.0796 28.9751C49.5098 29.4904 48.6299 29.803 47.408 29.803V30.803ZM51.969 26.645C51.969 25.4119 51.5535 24.3801 50.7319 23.6641C49.9199 22.9564 48.7732 22.611 47.408 22.611V23.611C48.6158 23.611 49.4996 23.9166 50.0749 24.4179C50.6405 24.9109 50.969 25.6461 50.969 26.645H51.969ZM66.5868 17.717H67.0868C67.0868 17.4806 66.9212 17.2764 66.6898 17.2277L66.5868 17.717ZM66.5868 20.383V20.883C66.863 20.883 67.0868 20.6591 67.0868 20.383H66.5868ZM60.8208 33V33.5C61.097 33.5 61.3208 33.2761 61.3208 33H60.8208ZM57.9068 33H57.4068C57.4068 33.2761 57.6307 33.5 57.9068 33.5V33ZM57.9068 17.872V17.372C57.6307 17.372 57.4068 17.5959 57.4068 17.872H57.9068ZM60.6348 17.872L61.1332 17.8316C61.1121 17.572 60.8953 17.372 60.6348 17.372V17.872ZM60.8208 20.166L60.3225 20.2064C60.3413 20.4384 60.5176 20.6267 60.7479 20.6606C60.9781 20.6946 61.2013 20.5652 61.2863 20.3485L60.8208 20.166ZM66.0868 17.717V20.383H67.0868V17.717H66.0868ZM66.5868 19.883H65.2848V20.883H66.5868V19.883ZM65.2848 19.883C63.8036 19.883 62.5475 20.3345 61.662 21.2334C60.7772 22.1315 60.3208 23.4169 60.3208 24.971H61.3208C61.3208 23.6111 61.7169 22.6025 62.3744 21.9351C63.0311 21.2685 64.007 20.883 65.2848 20.883V19.883ZM60.3208 24.971V33H61.3208V24.971H60.3208ZM60.8208 32.5H57.9068V33.5H60.8208V32.5ZM58.4068 33V17.872H57.4068V33H58.4068ZM57.9068 18.372H60.6348V17.372H57.9068V18.372ZM60.1365 17.9124L60.3225 20.2064L61.3192 20.1256L61.1332 17.8316L60.1365 17.9124ZM61.2863 20.3485C61.8234 18.9789 63.1434 18.031 65.0368 18.031V17.031C62.7763 17.031 61.0582 18.1911 60.3553 19.9835L61.2863 20.3485ZM65.0368 18.031C65.5168 18.031 65.9138 18.0863 66.4838 18.2063L66.6898 17.2277C66.0818 17.0997 65.6109 17.031 65.0368 17.031V18.031ZM69.3199 33H68.8199C68.8199 33.2761 69.0438 33.5 69.3199 33.5V33ZM69.3199 17.841V17.341C69.0438 17.341 68.8199 17.5649 68.8199 17.841H69.3199ZM72.2339 17.841H72.7339C72.7339 17.5649 72.5101 17.341 72.2339 17.341V17.841ZM72.2339 33V33.5C72.5101 33.5 72.7339 33.2761 72.7339 33H72.2339ZM70.7459 13.745C69.9681 13.745 69.3239 13.1009 69.3239 12.323H68.3239C68.3239 13.6531 69.4158 14.745 70.7459 14.745V13.745ZM69.3239 12.323C69.3239 11.5194 69.9628 10.901 70.7459 10.901V9.901C69.4211 9.901 68.3239 10.9566 68.3239 12.323H69.3239ZM70.7459 10.901C71.5291 10.901 72.1679 11.5194 72.1679 12.323H73.1679C73.1679 10.9566 72.0708 9.901 70.7459 9.901V10.901ZM72.1679 12.323C72.1679 13.1009 71.5238 13.745 70.7459 13.745V14.745C72.0761 14.745 73.1679 13.6531 73.1679 12.323H72.1679ZM69.8199 33V17.841H68.8199V33H69.8199ZM69.3199 18.341H72.2339V17.341H69.3199V18.341ZM71.7339 17.841V33H72.7339V17.841H71.7339ZM72.2339 32.5H69.3199V33.5H72.2339V32.5ZM87.9654 20.414L87.5197 20.6405C87.6209 20.8397 87.8421 20.9476 88.0614 20.9047C88.2807 20.8619 88.4449 20.6787 88.4637 20.456L87.9654 20.414ZM88.1824 17.841V17.341C87.9226 17.341 87.7061 17.54 87.6842 17.799L88.1824 17.841ZM90.7864 17.841H91.2864C91.2864 17.5649 91.0626 17.341 90.7864 17.341V17.841ZM75.6894 34.023V33.523C75.5443 33.523 75.4063 33.5861 75.3113 33.6958C75.2164 33.8056 75.1738 33.9512 75.1946 34.0948L75.6894 34.023ZM78.6034 34.023L79.0966 33.9408C79.0565 33.6997 78.8479 33.523 78.6034 33.523V34.023ZM87.9034 29.776H88.4034C88.4034 29.5486 88.25 29.3498 88.0299 29.2923C87.8099 29.2347 87.5788 29.3329 87.4675 29.5312L87.9034 29.776ZM76.0034 25.033C76.0034 23.0002 76.6583 21.2186 77.8041 19.951C78.9451 18.6888 80.5985 17.907 82.6644 17.907V16.907C80.3284 16.907 78.4013 17.7992 77.0623 19.2805C75.7281 20.7564 75.0034 22.7878 75.0034 25.033H76.0034ZM82.6644 17.907C84.9491 17.907 86.6543 18.9376 87.5197 20.6405L88.4112 20.1875C87.3546 18.1084 85.2778 16.907 82.6644 16.907V17.907ZM88.4637 20.456L88.6807 17.883L87.6842 17.799L87.4672 20.372L88.4637 20.456ZM88.1824 18.341H90.7864V17.341H88.1824V18.341ZM90.2864 17.841V32.38H91.2864V17.841H90.2864ZM90.2864 32.38C90.2864 34.6637 89.5838 36.4825 88.3741 37.7279C87.1658 38.9716 85.4047 39.692 83.1914 39.692V40.692C85.6282 40.692 87.6645 39.8934 89.0913 38.4246C90.5166 36.9575 91.2864 34.8703 91.2864 32.38H90.2864ZM83.1914 39.692C81.2244 39.692 79.6068 39.1384 78.4213 38.1629C77.2379 37.1892 76.4475 35.7648 76.1843 33.9512L75.1946 34.0948C75.4894 36.1252 76.3885 37.7853 77.7859 38.9351C79.181 40.0831 81.0355 40.692 83.1914 40.692V39.692ZM75.6894 34.523H78.6034V33.523H75.6894V34.523ZM78.1102 34.1052C78.3145 35.3309 78.8843 36.3325 79.7781 37.0227C80.6673 37.7094 81.8364 38.057 83.1914 38.057V37.057C82.0045 37.057 81.0656 36.7536 80.3893 36.2313C79.7176 35.7125 79.2644 34.9471 79.0966 33.9408L78.1102 34.1052ZM83.1914 38.057C84.7283 38.057 86.0415 37.5536 86.9713 36.6193C87.901 35.6853 88.4034 34.3649 88.4034 32.814H87.4034C87.4034 34.1461 86.9759 35.1972 86.2626 35.9139C85.5494 36.6304 84.5065 37.057 83.1914 37.057V38.057ZM88.4034 32.814V29.776H87.4034V32.814H88.4034ZM87.4675 29.5312C86.5801 31.1119 84.7821 32.097 82.5404 32.097V33.097C85.0727 33.097 87.2428 31.9741 88.3394 30.0208L87.4675 29.5312ZM82.5404 32.097C80.5228 32.097 78.9006 31.3244 77.7782 30.0737C76.651 28.8176 76.0034 27.0508 76.0034 25.033H75.0034C75.0034 27.2622 75.7199 29.2774 77.0339 30.7416C78.3528 32.2111 80.2491 33.097 82.5404 33.097V32.097ZM77.9174 24.971C77.9174 26.4979 78.3908 27.8917 79.2808 28.9113C80.1766 29.9376 81.4701 30.555 83.0364 30.555V29.555C81.7508 29.555 80.7348 29.0564 80.0341 28.2537C79.3276 27.4443 78.9174 26.2961 78.9174 24.971H77.9174ZM83.0364 30.555C84.6351 30.555 85.9604 29.979 86.8822 28.9654C87.7991 27.9572 88.2794 26.5581 88.2794 24.971H87.2794C87.2794 26.3599 86.8608 27.5028 86.1424 28.2926C85.429 29.077 84.3827 29.555 83.0364 29.555V30.555ZM88.2794 24.971C88.2794 23.4169 87.8158 22.0332 86.9103 21.0319C85.9992 20.0244 84.6806 19.449 83.0674 19.449V20.449C84.4302 20.449 85.4677 20.9276 86.1686 21.7026C86.8751 22.4838 87.2794 23.6111 87.2794 24.971H88.2794ZM83.0674 19.449C81.4731 19.449 80.1717 20.0641 79.2744 21.0834C78.3833 22.0956 77.9174 23.4748 77.9174 24.971H78.9174C78.9174 23.6772 79.3196 22.5454 80.025 21.7441C80.7242 20.9499 81.7477 20.449 83.0674 20.449V19.449ZM97.9058 32.969V33.469C98.1819 33.469 98.4058 33.2451 98.4058 32.969H97.9058ZM94.9918 32.969H94.4918C94.4918 33.2451 94.7156 33.469 94.9918 33.469V32.969ZM94.9918 10.184V9.684C94.7156 9.684 94.4918 9.90786 94.4918 10.184H94.9918ZM97.9058 10.184H98.4058C98.4058 9.90786 98.1819 9.684 97.9058 9.684V10.184ZM97.9058 20.166H97.4058C97.4058 20.3918 97.5571 20.5895 97.775 20.6486C97.9929 20.7076 98.2234 20.6133 98.3374 20.4184L97.9058 20.166ZM108.787 33V33.5C109.063 33.5 109.287 33.2761 109.287 33H108.787ZM105.873 33H105.373C105.373 33.2761 105.597 33.5 105.873 33.5V33ZM97.9058 32.469H94.9918V33.469H97.9058V32.469ZM95.4918 32.969V10.184H94.4918V32.969H95.4918ZM94.9918 10.684H97.9058V9.684H94.9918V10.684ZM97.4058 10.184V20.166H98.4058V10.184H97.4058ZM98.3374 20.4184C99.2035 18.9377 100.863 17.907 103.052 17.907V16.907C100.529 16.907 98.5301 18.1083 97.4742 19.9136L98.3374 20.4184ZM103.052 17.907C104.879 17.907 106.161 18.48 106.994 19.4431C107.839 20.4182 108.287 21.8657 108.287 23.731H109.287C109.287 21.7213 108.805 20.0068 107.75 18.7886C106.685 17.5585 105.1 16.907 103.052 16.907V17.907ZM108.287 23.731V33H109.287V23.731H108.287ZM108.787 32.5H105.873V33.5H108.787V32.5ZM106.373 33V24.382H105.373V33H106.373ZM106.373 24.382C106.373 22.7762 105.992 21.5579 105.242 20.7389C104.485 19.9125 103.425 19.573 102.246 19.573V20.573C103.236 20.573 103.991 20.8535 104.504 21.4144C105.025 21.9826 105.373 22.9188 105.373 24.382H106.373ZM102.246 19.573C100.705 19.573 99.4778 20.1366 98.6416 21.0922C97.8131 22.0392 97.4058 23.3274 97.4058 24.723H98.4058C98.4058 23.5146 98.758 22.4778 99.3942 21.7508C100.023 21.0324 100.965 20.573 102.246 20.573V19.573ZM97.4058 24.723V32.969H98.4058V24.723H97.4058ZM117.101 33V33.5C117.377 33.5 117.601 33.2761 117.601 33H117.101ZM114.187 33H113.687C113.687 33.2761 113.911 33.5 114.187 33.5V33ZM114.187 20.29H114.687C114.687 20.0139 114.463 19.79 114.187 19.79V20.29ZM111.211 20.29H110.711C110.711 20.5661 110.935 20.79 111.211 20.79V20.29ZM111.211 17.841V17.341C110.935 17.341 110.711 17.5649 110.711 17.841H111.211ZM114.187 17.841V18.341C114.463 18.341 114.687 18.1171 114.687 17.841H114.187ZM114.187 13.098V12.598C113.911 12.598 113.687 12.8219 113.687 13.098H114.187ZM117.101 13.098H117.601C117.601 12.8219 117.377 12.598 117.101 12.598V13.098ZM117.101 17.841H116.601C116.601 18.1171 116.825 18.341 117.101 18.341V17.841ZM120.077 17.841H120.577C120.577 17.5649 120.353 17.341 120.077 17.341V17.841ZM120.077 20.29V20.79C120.353 20.79 120.577 20.5661 120.577 20.29H120.077ZM117.101 20.29V19.79C116.825 19.79 116.601 20.0139 116.601 20.29H117.101ZM117.101 32.5H114.187V33.5H117.101V32.5ZM114.687 33V20.29H113.687V33H114.687ZM114.187 19.79H111.211V20.79H114.187V19.79ZM111.711 20.29V17.841H110.711V20.29H111.711ZM111.211 18.341H114.187V17.341H111.211V18.341ZM114.687 17.841V13.098H113.687V17.841H114.687ZM114.187 13.598H117.101V12.598H114.187V13.598ZM116.601 13.098V17.841H117.601V13.098H116.601ZM117.101 18.341H120.077V17.341H117.101V18.341ZM119.577 17.841V20.29H120.577V17.841H119.577ZM120.077 19.79H117.101V20.79H120.077V19.79ZM116.601 20.29V33H117.601V20.29H116.601Z" fill="black"/>
<path d="M123.449 25.033V10.587H126.487V24.847C126.487 28.443 128.471 30.427 132.036 30.427C135.57 30.427 137.523 28.412 137.523 24.847V10.587H140.592V25.033C140.592 30.179 137.306 33.372 132.036 33.372C126.735 33.372 123.449 30.21 123.449 25.033ZM148.681 10.587V33H145.643V10.587H148.681Z" fill="black"/>
<path d="M123.449 10.587V10.087C123.173 10.087 122.949 10.3109 122.949 10.587H123.449ZM126.487 10.587H126.987C126.987 10.3109 126.763 10.087 126.487 10.087V10.587ZM137.523 10.587V10.087C137.247 10.087 137.023 10.3109 137.023 10.587H137.523ZM140.592 10.587H141.092C141.092 10.3109 140.868 10.087 140.592 10.087V10.587ZM123.949 25.033V10.587H122.949V25.033H123.949ZM123.449 11.087H126.487V10.087H123.449V11.087ZM125.987 10.587V24.847H126.987V10.587H125.987ZM125.987 24.847C125.987 26.7346 126.509 28.2727 127.57 29.3383C128.632 30.4043 130.163 30.927 132.036 30.927V29.927C130.344 29.927 129.101 29.4577 128.279 28.6327C127.457 27.8073 126.987 26.5554 126.987 24.847H125.987ZM132.036 30.927C133.897 30.927 135.413 30.3946 136.462 29.3238C137.509 28.2545 138.023 26.718 138.023 24.847H137.023C137.023 26.541 136.56 27.7945 135.748 28.624C134.937 29.4519 133.709 29.927 132.036 29.927V30.927ZM138.023 24.847V10.587H137.023V24.847H138.023ZM137.523 11.087H140.592V10.087H137.523V11.087ZM140.092 10.587V25.033H141.092V10.587H140.092ZM140.092 25.033C140.092 27.4973 139.308 29.4435 137.941 30.774C136.574 32.1061 134.57 32.872 132.036 32.872V33.872C134.772 33.872 137.046 33.0414 138.639 31.4905C140.233 29.938 141.092 27.7147 141.092 25.033H140.092ZM132.036 32.872C129.485 32.872 127.473 32.1126 126.103 30.7847C124.734 29.4587 123.949 27.5134 123.949 25.033H122.949C122.949 27.7296 123.807 29.9538 125.407 31.503C127.004 33.0504 129.286 33.872 132.036 33.872V32.872ZM148.681 10.587H149.181C149.181 10.3109 148.957 10.087 148.681 10.087V10.587ZM148.681 33V33.5C148.957 33.5 149.181 33.2761 149.181 33H148.681ZM145.643 33H145.143C145.143 33.2761 145.367 33.5 145.643 33.5V33ZM145.643 10.587V10.087C145.367 10.087 145.143 10.3109 145.143 10.587H145.643ZM148.181 10.587V33H149.181V10.587H148.181ZM148.681 32.5H145.643V33.5H148.681V32.5ZM146.143 33V10.587H145.143V33H146.143ZM145.643 11.087H148.681V10.087H145.643V11.087Z" fill="black"/>
<defs>
<linearGradient id="paint0_linear_445_1255" x1="15" y1="19.5" x2="15" y2="38.5" gradientUnits="userSpaceOnUse">
<stop stop-color="#A863FF"/>
<stop offset="1" stop-color="#4F38DF"/>
</linearGradient>
</defs>
</svg>
