<?xml version="1.0" encoding="utf-8"?>
<!-- Generator: Adobe Illustrator 27.5.0, SVG Export Plug-In . SVG Version: 6.00 Build 0)  -->
<svg version="1.1" id="Capa_1" xmlns="http://www.w3.org/2000/svg" xmlns:xlink="http://www.w3.org/1999/xlink" x="0px" y="0px"
	 viewBox="0 0 425.197 408.855" style="enable-background:new 0 0 425.197 408.855;" xml:space="preserve">
<rect style="fill:#FFFFFF;" width="425.197" height="408.855"/>
<g>
	<g>
		<g>
			
				<path style="fill:none;stroke:#2C343F;stroke-width:7.1668;stroke-linecap:round;stroke-linejoin:round;stroke-miterlimit:10;" d="
				M371.595,229.997v-11.762c0,0-0.534-8.944-8.999-14.315c0,0-25.703-14.904-26.664-71.133c0,0-1.916-78.147-102.516-78.147
				h-46.872"/>
			<path style="fill:#8F2015;" d="M377.696,234.286c0,4.941-4.024,8.948-8.995,8.948l0,0c-4.97,0-8.998-4.007-8.998-8.948l0,0
				c0-4.942,4.028-8.95,8.998-8.95l0,0C373.672,225.336,377.696,229.344,377.696,234.286L377.696,234.286z"/>
			<g>
				<path style="fill:#464F5B;" d="M297.105,208.555c0-12.633,10.298-22.873,22.992-22.873l0,0c12.703,0,22.998,10.24,22.998,22.873
					v51.463c0,12.631-10.295,22.873-22.998,22.873l0,0c-12.694,0-22.992-10.242-22.992-22.873V208.555z"/>
				<path style="fill:#C6C6C6;" d="M324.818,209.779c9.945,12.288,11.292,26.555,8.463,41.645
					c-2.421,12.928-12.061,25.98-25.541,27.855c3.57,2.275,7.806,3.611,12.357,3.611c12.703,0,22.998-10.242,22.998-22.873v-51.463
					c0-12.633-10.295-22.873-22.998-22.873c-9.928,0-18.359,6.27-21.576,15.038C308.24,199.523,318.364,201.804,324.818,209.779z"/>
				<defs>
					<filter id="Adobe_OpacityMaskFilter" filterUnits="userSpaceOnUse" x="305.251" y="206.17" width="4.789" height="62.898">
						<feFlood  style="flood-color:white;flood-opacity:1" result="back"/>
						<feBlend  in="SourceGraphic" in2="back" mode="normal"/>
					</filter>
				</defs>
				<mask maskUnits="userSpaceOnUse" x="305.251" y="206.17" width="4.789" height="62.898" id="SVGID_1_">
					<g style="filter:url(#Adobe_OpacityMaskFilter);">
						<defs>
							
								<filter id="Adobe_OpacityMaskFilter_00000101092115103560512050000016544047976933070778_" filterUnits="userSpaceOnUse" x="305.251" y="206.17" width="4.789" height="62.898">
								<feFlood  style="flood-color:white;flood-opacity:1" result="back"/>
								<feBlend  in="SourceGraphic" in2="back" mode="normal"/>
							</filter>
						</defs>
						<mask maskUnits="userSpaceOnUse" x="305.251" y="206.17" width="4.789" height="62.898" id="SVGID_1_">
							<g style="filter:url(#Adobe_OpacityMaskFilter_00000101092115103560512050000016544047976933070778_);">
							</g>
						</mask>
						
							<linearGradient id="SVGID_00000078726513457853865390000006936338139938972062_" gradientUnits="userSpaceOnUse" x1="305.251" y1="237.6192" x2="310.0401" y2="237.6192">
							<stop  offset="0" style="stop-color:#FFFFFF"/>
							<stop  offset="1" style="stop-color:#000000"/>
						</linearGradient>
						<path style="mask:url(#SVGID_1_);fill:url(#SVGID_00000078726513457853865390000006936338139938972062_);" d="
							M305.251,208.553c0-1.316,1.074-2.383,2.396-2.383l0,0c1.322,0,2.394,1.066,2.394,2.383v58.135
							c0,1.316-1.071,2.381-2.394,2.381l0,0c-1.321,0-2.396-1.064-2.396-2.381V208.553z"/>
					</g>
				</mask>
				
					<linearGradient id="SVGID_00000005225702834598381250000014445257896663228835_" gradientUnits="userSpaceOnUse" x1="305.251" y1="237.6192" x2="310.0401" y2="237.6192">
					<stop  offset="0" style="stop-color:#FFFFFF"/>
					<stop  offset="1" style="stop-color:#FFFFFF"/>
				</linearGradient>
				<path style="fill:url(#SVGID_00000005225702834598381250000014445257896663228835_);" d="M305.251,208.553
					c0-1.316,1.074-2.383,2.396-2.383l0,0c1.322,0,2.394,1.066,2.394,2.383v58.135c0,1.316-1.071,2.381-2.394,2.381l0,0
					c-1.321,0-2.396-1.064-2.396-2.381V208.553z"/>
			</g>
			<g>
				<path style="fill:#D42A26;" d="M339.996,199.234v70.1c15.445-4.258,26.786-18.333,26.786-35.05
					C366.782,217.568,355.441,203.495,339.996,199.234z"/>
				<path style="fill:#DADADA;" d="M355.904,247.682c-11.713-7.512-14.711-18.118-15.908-30.876v52.528
					c9.986-2.754,18.233-9.625,22.836-18.645C360.395,250.036,358.057,249.061,355.904,247.682z"/>
			</g>
			
				<path style="fill:none;stroke:#2C343F;stroke-width:8.6002;stroke-linecap:round;stroke-linejoin:round;stroke-miterlimit:10;" d="
				M351.41,253.344c0,0,13.225,120.167-113.23,116.75"/>
			<path style="fill:#232A33;" d="M242.746,370.568c0,5.79-4.721,10.482-10.543,10.482h-14.146c-5.82,0-10.535-4.692-10.535-10.482
				l0,0c0-5.79,4.715-10.482,10.535-10.482h14.146C238.025,360.086,242.746,364.778,242.746,370.568L242.746,370.568z"/>
		</g>
	</g>
	<g>
		<g>
			
				<path style="fill:none;stroke:#2C343F;stroke-width:7.1668;stroke-linecap:round;stroke-linejoin:round;stroke-miterlimit:10;" d="
				M53.604,229.997v-11.762c0,0,0.531-8.944,8.994-14.315c0,0,25.708-14.904,26.671-71.133c0,0,1.915-78.147,102.52-78.147h46.863"
				/>
			<path style="fill:#8F2015;" d="M47.499,234.286c0,4.941,4.031,8.948,8.997,8.948l0,0c4.973,0,9.006-4.007,9.006-8.948l0,0
				c0-4.942-4.033-8.95-9.006-8.95l0,0C51.53,225.336,47.499,229.344,47.499,234.286L47.499,234.286z"/>
			<g>
				<path style="fill:#464F5B;" d="M128.092,208.555c0-12.633-10.293-22.873-22.994-22.873l0,0
					c-12.701,0-22.998,10.24-22.998,22.873v51.463c0,12.631,10.297,22.873,22.998,22.873l0,0c12.701,0,22.994-10.242,22.994-22.873
					V208.555z"/>
				<path style="fill:#C6C6C6;" d="M100.379,209.779c-9.942,12.288-11.287,26.555-8.463,41.645
					c2.426,12.928,12.065,25.98,25.548,27.855c-3.578,2.275-7.81,3.611-12.366,3.611c-12.701,0-22.998-10.242-22.998-22.873v-51.463
					c0-12.633,10.297-22.873,22.998-22.873c9.928,0,18.359,6.27,21.583,15.038C116.955,199.523,106.831,201.804,100.379,209.779z"/>
				<defs>
					
						<filter id="Adobe_OpacityMaskFilter_00000032611935593361652680000016168476128762437780_" filterUnits="userSpaceOnUse" x="115.156" y="206.17" width="4.793" height="62.898">
						<feFlood  style="flood-color:white;flood-opacity:1" result="back"/>
						<feBlend  in="SourceGraphic" in2="back" mode="normal"/>
					</filter>
				</defs>
				
					<mask maskUnits="userSpaceOnUse" x="115.156" y="206.17" width="4.793" height="62.898" id="SVGID_00000090292269295728519850000018013785185798200734_">
					<g style="filter:url(#Adobe_OpacityMaskFilter_00000032611935593361652680000016168476128762437780_);">
						<defs>
							
								<filter id="Adobe_OpacityMaskFilter_00000023241262149927907340000015338082849204635581_" filterUnits="userSpaceOnUse" x="115.156" y="206.17" width="4.793" height="62.898">
								<feFlood  style="flood-color:white;flood-opacity:1" result="back"/>
								<feBlend  in="SourceGraphic" in2="back" mode="normal"/>
							</filter>
						</defs>
						
							<mask maskUnits="userSpaceOnUse" x="115.156" y="206.17" width="4.793" height="62.898" id="SVGID_00000090292269295728519850000018013785185798200734_">
							<g style="filter:url(#Adobe_OpacityMaskFilter_00000023241262149927907340000015338082849204635581_);">
							</g>
						</mask>
						
							<linearGradient id="SVGID_00000144295776126876887820000005343346080309383589_" gradientUnits="userSpaceOnUse" x1="115.1563" y1="237.6192" x2="119.9493" y2="237.6192">
							<stop  offset="0" style="stop-color:#FFFFFF"/>
							<stop  offset="1" style="stop-color:#000000"/>
						</linearGradient>
						
							<path style="mask:url(#SVGID_00000090292269295728519850000018013785185798200734_);fill:url(#SVGID_00000144295776126876887820000005343346080309383589_);" d="
							M119.949,208.553c0-1.316-1.074-2.383-2.394-2.383l0,0c-1.323,0-2.399,1.066-2.399,2.383v58.135
							c0,1.316,1.076,2.381,2.399,2.381l0,0c1.319,0,2.394-1.064,2.394-2.381V208.553z"/>
					</g>
				</mask>
				
					<linearGradient id="SVGID_00000023279754928525425900000010343388630740437663_" gradientUnits="userSpaceOnUse" x1="115.1563" y1="237.6192" x2="119.9493" y2="237.6192">
					<stop  offset="0" style="stop-color:#FFFFFF"/>
					<stop  offset="1" style="stop-color:#FFFFFF"/>
				</linearGradient>
				<path style="fill:url(#SVGID_00000023279754928525425900000010343388630740437663_);" d="M119.949,208.553
					c0-1.316-1.074-2.383-2.394-2.383l0,0c-1.323,0-2.399,1.066-2.399,2.383v58.135c0,1.316,1.076,2.381,2.399,2.381l0,0
					c1.319,0,2.394-1.064,2.394-2.381V208.553z"/>
			</g>
			<g>
				<path style="fill:#D42A26;" d="M85.203,199.234v70.1c-15.448-4.258-26.789-18.333-26.789-35.05
					C58.414,217.568,69.755,203.495,85.203,199.234z"/>
				<path style="fill:#DADADA;" d="M69.291,247.682c11.715-7.512,14.713-18.118,15.912-30.876v52.528
					c-9.987-2.754-18.234-9.625-22.838-18.645C64.802,250.036,67.139,249.061,69.291,247.682z"/>
			</g>
		</g>
	</g>
	<path style="fill:#D42A26;" d="M279.069,55.594c0,8.032-6.507,14.539-14.537,14.539H160.668c-8.029,0-14.539-6.507-14.539-14.539
		l0,0c0-8.027,6.51-14.537,14.539-14.537h103.864C272.563,41.057,279.069,47.566,279.069,55.594L279.069,55.594z"/>
	<path style="fill:#C6C6C6;" d="M146.184,56.715c0.57,7.505,6.832,13.418,14.484,13.418h103.864c7.653,0,13.911-5.913,14.481-13.418
		H146.184z"/>
</g>
<g>
	<g>
		<path style="fill:#B2B2B2;" d="M275.52,336.713c0,3.141-2.424,5.688-5.418,5.688H155.095c-2.988,0-5.417-2.547-5.417-5.688
			v-200.24c0-3.141,3.509-10.305,14.182-10.305h98.559c8.984,0,13.102,7.164,13.102,10.305V336.713z"/>
		<path style="fill:#3A414B;" d="M275.52,336.982c0,2.991-2.424,5.418-5.416,5.418H155.095c-2.988,0-5.417-2.427-5.417-5.418
			V141.891c0-2.992,2.429-5.418,5.417-5.418h115.009c2.992,0,5.416,2.426,5.416,5.418V336.982z"/>
		<path style="fill:#FFFFFF;" d="M262.785,334.068c2.76,0,4.998-2.236,4.998-4.998V149.126c0-2.76-2.238-4.997-4.998-4.997
			l-28.498-2.959h31.961c2.846,0,5.154,2.307,5.154,5.151v185.554c0,2.847-2.309,5.153-5.154,5.153H227.52L262.785,334.068z"/>
		<path style="fill:#C6C6C6;" d="M261.525,318.621c-25.509-6.4-44.684-25.142-58.559-46.716
			c-7.473-11.616-13.999-23.974-18.793-36.939c-5.413-14.631-8.76-29.907-10.535-45.393c-1.713-14.947-1.814-30.049-1.572-45.08
			c0.041-2.674,0.122-5.35,0.26-8.021h-17.231c-2.988,0-5.417,2.426-5.417,5.418v195.092c0,2.991,2.429,5.418,5.417,5.418h115.009
			c2.992,0,5.416-2.427,5.416-5.418v-15.856C270.829,320.605,266.156,319.783,261.525,318.621z"/>
		<g>
			<path style="fill:#C6C6C6;" d="M229.348,331.363c0,1.994-1.615,3.609-3.607,3.609h-26.282c-1.992,0-3.607-1.615-3.607-3.609l0,0
				c0-1.992,1.615-3.607,3.607-3.607h26.282C227.732,327.757,229.348,329.371,229.348,331.363L229.348,331.363z"/>
			<path style="fill:#C6C6C6;" d="M199.459,334.973h26.282c1.991,0,3.607-1.615,3.607-3.609h-33.496
				C195.852,333.357,197.467,334.973,199.459,334.973z"/>
		</g>
	</g>
	<path style="fill:#FFFFFF;" d="M264.105,315.68c0,2.448-1.986,4.434-4.434,4.434h-94.141c-2.452,0-4.436-1.985-4.436-4.434V155.982
		c0-2.449,1.984-4.434,4.436-4.434h94.141c2.447,0,4.434,1.984,4.434,4.434V315.68z"/>
	<g>
		<defs>
			<path id="SVGID_00000158018735348838380920000012754784285961431682_" d="M264.104,315.68c0,2.448-1.986,4.434-4.432,4.434
				H165.53c-2.452,0-4.436-1.985-4.436-4.434V155.982c0-2.449,1.983-4.434,4.436-4.434h94.142c2.445,0,4.432,1.984,4.432,4.434
				V315.68z"/>
		</defs>
		<clipPath id="SVGID_00000114773245522055632830000000297778303376022934_">
			<use xlink:href="#SVGID_00000158018735348838380920000012754784285961431682_"  style="overflow:visible;"/>
		</clipPath>
		<g style="clip-path:url(#SVGID_00000114773245522055632830000000297778303376022934_);">
			<g>
				
					<path style="fill:none;stroke:#2C343F;stroke-width:2.0215;stroke-linecap:round;stroke-linejoin:round;stroke-miterlimit:10;" d="
					M260.789,228.43l-0.066-3.487c0,0-0.19-2.651-2.492-4.202c0,0-6.977-4.292-7.541-20.963c0,0-0.94-23.168-27.922-22.669
					l-12.569,0.232"/>
				
					<path style="fill:none;stroke:#2C343F;stroke-width:2.0215;stroke-linecap:round;stroke-linejoin:round;stroke-miterlimit:10;" d="
					M167.164,230.166l-0.065-3.489c0,0,0.093-2.655,2.333-4.29c0,0,6.813-4.547,6.76-21.23c0,0,0.084-23.187,27.063-23.688
					l12.567-0.232"/>
			</g>
			<g>
				<g>
					
						<rect x="185.458" y="227.096" transform="matrix(0.9998 -0.0185 0.0185 0.9998 -4.7254 3.9862)" style="fill:#745615;" width="54.121" height="59.245"/>
					<path style="fill:#F7C7AD;" d="M245.401,279.99c-13.542-1.274-20.27-5.146-21.421-5.867l-24.063,0.445
						c-1.125,0.765-7.705,4.882-21.189,6.658c0,0-25.736,1.44-24.148,48.121c0,0,19.542,8.381,58.526,7.585
						c38.988-0.649,58.209-9.75,58.209-9.75C271.171,280.477,245.401,279.99,245.401,279.99z"/>
					<path style="fill:#FFFFFF;" d="M178.729,281.227c0,0-25.736,1.44-24.148,48.121c0,0,19.542,8.381,58.526,7.585
						c38.988-0.649,58.209-9.75,58.209-9.75c-0.146-46.706-25.915-47.192-25.915-47.192s-25.114-1.316-33.173,9.516
						C212.229,289.506,204.029,276.522,178.729,281.227z"/>
					<g>
						
							<rect x="199.587" y="261.362" transform="matrix(0.9998 -0.0186 0.0186 0.9998 -4.9804 3.9791)" style="fill:#F7C7AD;" width="24.574" height="17.871"/>
						<path style="fill:#DADADA;" d="M199.519,266.685v0.006c0.276,0.314,0.554,0.628,0.852,0.922
							c0.783,0.779,1.592,1.529,2.466,2.205c0.029,0.024,0.05,0.04,0.079,0.06c0.278,0.197,0.56,0.391,0.85,0.579
							c0.439,0.282,0.883,0.567,1.34,0.826c0.66,0.377,1.333,0.739,2.021,1.061c0.221,0.083,0.871,0.337,1.068,0.402
							c0.667,0.212,1.331,0.421,2.011,0.587c0.697,0.168,1.399,0.335,2.105,0.459c-0.185-0.032,1.862,0.271,1.372,0.236
							c1.658,0.152,3.327,0.248,4.991,0.184c0.714-0.026,1.431-0.053,2.143-0.121c0.227-0.023,1.29-0.2,1.396-0.203
							c0.678-0.162,1.347-0.363,2.007-0.59l-0.227-12.162l-24.569,0.454l0.094,5.042
							C199.588,266.738,199.607,266.777,199.519,266.685z"/>
					</g>
					<path style="fill:#F7C7AD;" d="M239.059,228.545c0.396,21.162-11.8,38.55-27.24,38.836
						c-15.438,0.286-28.27-16.638-28.662-37.799c-0.391-21.162,11.876-34.656,27.314-34.942
						C225.91,194.352,238.668,207.384,239.059,228.545z"/>
					<path style="opacity:0.5;fill:#FFFFFF;" d="M195.889,212.051c0.007-0.048,0.018-0.096,0.023-0.146
						c3.865-4.711,9.265-7.393,15.281-7.503c12.063-0.224,22.029,9.956,22.336,26.488c0.204,11.019-3.961,20.72-10.333,26.037
						C223.196,256.927,186.568,253.247,195.889,212.051z"/>
					<path style="fill:#EDEDED;" d="M207.309,259.033c-9.633-5.826-15.015-15.919-16.537-26.858
						c-1.428-10.276,0.982-21.719,7.366-29.982c2.215-2.866,5.069-5.313,8.253-7.154c-13.461,2.383-23.591,15.286-23.234,34.544
						c0.393,21.161,13.225,38.085,28.662,37.799c4.486-0.083,8.695-1.611,12.402-4.253
						C218.379,263.433,212.491,262.165,207.309,259.033z"/>
					<path style="fill:#D42A26;" d="M198.754,275.285c-2.582,1.468-8.992,4.488-20.025,5.941c0,0-25.736,1.44-24.148,48.121
						c0,0,19.542,8.381,58.526,7.585c38.988-0.649,58.209-9.75,58.209-9.75c-0.146-46.706-25.915-47.192-25.915-47.192
						c-11.082-1.042-17.602-3.826-20.235-5.195c0,0,14.299,30.346-12.127,58.384C213.039,333.179,186.506,306.832,198.754,275.285z"
						/>
					<path style="fill:#00B1C3;" d="M190.953,297.639c0.011,0.06,0.023,0.12,0.036,0.18c0.108,0.477,0.219,0.951,0.333,1.424
						c0.069-0.031,0.137-0.064,0.208-0.094C191.331,298.652,191.139,298.147,190.953,297.639z"/>
					<path style="fill:#AB251C;" d="M245.401,279.99c-11.082-1.042-17.602-3.826-20.235-5.195c0,0,14.299,30.346-12.127,58.384
						c0,0-26.533-26.347-14.285-57.894c-2.582,1.468-8.992,4.488-20.025,5.941c0,0-4.059,11.227,5.132,20.965
						c0,0,3.863-2.172,5.978-1.612l-7.361,5.618c0,0,2.151,21.205,25.452,30.831l11.706-0.217c0,0,19.857-10.128,22.865-36.008
						c0,0-1.901-2.072-7.688-3.76c0,0,3.509-1.268,7.606-0.742C242.418,296.302,249.926,292.177,245.401,279.99z"/>
					<path style="fill:#EDEDED;" d="M245.401,279.99c-11.082-1.042-17.602-3.826-20.235-5.195c0,0,14.299,30.346-12.127,58.384
						c0,0-0.26-0.257-0.709-0.744c-0.002,0-0.004,0-0.004,0c-3.307,1.091-6.861-0.72-9.59-2.462c-3.182-2.029-6.309-4.387-8.9-7.147
						c-2.597-2.765-5.404-6.22-6.033-10.089c-0.851-5.257,1.032-9.671,5.555-12.593c0.826-0.53,1.735-0.829,2.663-0.933
						c-1.048-7.324-0.564-15.436,2.733-23.926c-2.582,1.468-8.992,4.488-20.025,5.941c0,0-0.059,0.162-0.144,0.455
						c2.969-0.329,5.864-0.953,8.724,0.638c5.664,3.156,4.859,10.143,1.413,14.603c-1.433,1.853-3.517,3.221-5.736,4.287
						c0.278,0.33,0.569,0.656,0.875,0.982c0,0,3.863-2.172,5.978-1.612l-7.361,5.618c0,0,2.151,21.205,25.452,30.831l11.706-0.217
						c0,0,19.857-10.128,22.865-36.008c0,0-1.901-2.072-7.688-3.76c0,0,3.509-1.268,7.606-0.742
						C242.418,296.302,249.926,292.177,245.401,279.99z"/>
					<path style="fill:#EDEDED;" d="M245.401,279.99c-3.112-0.293-5.866-0.724-8.275-1.221c0.567,1.468,0.975,2.974,1.085,4.588
						c0.244,3.655-0.873,7.756-3.616,10.343c-1.681,1.582-3.587,2.69-5.62,3.468c-0.009,0.172-0.02,0.347-0.029,0.521
						c10.691,10.91-1.533,33.619-15.242,34.771c-0.221,0.24-0.438,0.48-0.664,0.72c0,0-0.035-0.033-0.079-0.082l0.069,3.838
						l6.605-0.123c0,0,19.857-10.128,22.865-36.008c0,0-1.901-2.072-7.688-3.76c0,0,3.509-1.268,7.606-0.742
						C242.418,296.302,249.926,292.177,245.401,279.99z"/>
					<path style="fill:#00B1C3;" d="M213.107,336.933"/>
					
						<rect x="212.233" y="289.501" transform="matrix(0.9998 -0.0184 0.0184 0.9998 -5.6832 3.9622)" style="fill:#C6C6C6;" width="0.793" height="43.081"/>
					<path style="fill:#DEDEDE;" d="M198.754,275.285c0,0-11.113,4.24-5.45,18.025c0,0,0.988-14.742,19.175,1.296
						c0,0,0.963-12.404-5.914-14.904C206.564,279.702,198.817,278.68,198.754,275.285z"/>
					<path style="fill:#DEDEDE;" d="M225.423,274.791c0,0,10.142,3.636,4.771,16.184c0,0-5.791-12.805-17.715,3.632
						c0,0-1.986-13.589,5.303-15.113C217.781,279.493,225.486,278.185,225.423,274.791z"/>
					<path style="fill:#DC9F2E;" d="M194.049,195.266c0,0,19.322,26.387,41.907,32.57l-1.71,41.607c0,0,0.736,7.773-8.27,11.84
						c0,0,16.159,3.996,19.138-7.551l-2.226-50.725C242.889,223.008,237.979,170.233,194.049,195.266z"/>
					<path style="fill:#DC9F2E;" d="M190.66,281.938l-0.984-53.242c-1.428-23.018,17.525-25.717,17.525-25.717l-9.038-9.492
						c0,0-31.724,6.828-20.62,78.289C177.543,271.775,176.973,282.594,190.66,281.938z"/>
					<g>
						<path style="fill:#C6C6C6;" d="M197.879,197.914c0,0,0.664-0.538,1.953-1.299c0.648-0.371,1.445-0.826,2.4-1.253
							c0.473-0.225,0.988-0.437,1.533-0.666c0.552-0.21,1.133-0.427,1.757-0.616c0.616-0.208,1.273-0.377,1.954-0.56
							c0.342-0.095,0.696-0.151,1.055-0.227c0.355-0.076,0.721-0.145,1.097-0.193c1.49-0.247,3.102-0.315,4.772-0.233
							c0.417,0.033,0.838,0.066,1.262,0.1c0.424,0.068,0.85,0.137,1.277,0.206c0.428,0.06,0.852,0.172,1.277,0.283l0.643,0.168
							l0.322,0.086l0.313,0.111c0.418,0.153,0.839,0.308,1.264,0.459c0.418,0.158,0.816,0.375,1.225,0.567l0.607,0.296
							c0.201,0.104,0.39,0.231,0.584,0.347l1.16,0.711c1.455,1.066,2.854,2.227,3.976,3.582c0.284,0.332,0.577,0.661,0.854,0.994
							c0.249,0.354,0.499,0.704,0.746,1.053c0.242,0.351,0.501,0.689,0.723,1.046c0.211,0.36,0.418,0.722,0.625,1.078
							c0.204,0.357,0.404,0.71,0.607,1.061c0.171,0.364,0.338,0.723,0.506,1.082c0.324,0.716,0.68,1.399,0.913,2.109
							c0.253,0.697,0.501,1.377,0.739,2.035c0.199,0.668,0.369,1.316,0.547,1.938c0.161,0.624,0.359,1.208,0.453,1.789
							c0.111,0.572,0.217,1.117,0.314,1.63c0.093,0.513,0.206,0.983,0.26,1.433c0.055,0.445,0.102,0.857,0.146,1.228
							c0.092,0.739,0.139,1.323,0.181,1.72c0.033,0.395,0.052,0.607,0.052,0.607s-0.074-0.201-0.213-0.574
							c-0.131-0.378-0.34-0.925-0.573-1.625c-0.12-0.35-0.249-0.734-0.393-1.155c-0.158-0.415-0.327-0.861-0.509-1.343
							c-0.373-0.952-0.751-2.037-1.266-3.175c-0.25-0.57-0.498-1.17-0.773-1.778c-0.299-0.598-0.605-1.216-0.92-1.852
							c-0.295-0.643-0.68-1.255-1.041-1.895c-0.182-0.321-0.367-0.644-0.551-0.97c-0.21-0.309-0.419-0.622-0.629-0.939
							c-0.213-0.313-0.422-0.629-0.638-0.951c-0.216-0.318-0.471-0.607-0.702-0.914c-0.239-0.304-0.481-0.611-0.72-0.918
							c-0.264-0.285-0.526-0.572-0.791-0.858c-1.043-1.173-2.269-2.168-3.53-3.087l-0.995-0.619c-0.165-0.1-0.323-0.215-0.499-0.304
							l-0.521-0.26l-0.52-0.259c-0.178-0.086-0.342-0.189-0.523-0.252c-0.361-0.143-0.721-0.284-1.078-0.43
							c-1.451-0.495-2.934-0.895-4.418-1.053c-1.478-0.166-2.938-0.24-4.33-0.148c-1.391,0.071-2.716,0.213-3.932,0.436
							c-2.438,0.42-4.445,1.018-5.846,1.469c-0.696,0.236-1.249,0.418-1.617,0.564C198.075,197.837,197.879,197.914,197.879,197.914
							z"/>
					</g>
					<g>
						<path style="fill:#C6C6C6;" d="M196.934,202.023c0,0,0.608-0.54,1.813-1.302c0.605-0.377,1.35-0.822,2.247-1.265
							c0.898-0.431,1.931-0.9,3.114-1.282c1.177-0.389,2.491-0.743,3.922-0.936c1.43-0.202,2.98-0.291,4.577-0.112
							c1.593,0.164,3.253,0.52,4.819,1.2l0.596,0.24c0.193,0.092,0.379,0.193,0.571,0.291c0.38,0.201,0.769,0.392,1.138,0.612
							c0.708,0.488,1.463,0.926,2.102,1.504c0.327,0.278,0.664,0.545,0.977,0.839l0.898,0.913l0.444,0.458
							c0.142,0.157,0.267,0.327,0.398,0.491c0.263,0.329,0.522,0.656,0.781,0.982c0.27,0.318,0.48,0.675,0.712,1.017
							c0.223,0.344,0.441,0.688,0.661,1.026l0.167,0.256l0.141,0.264c0.096,0.177,0.189,0.354,0.285,0.527
							c0.184,0.352,0.367,0.7,0.551,1.044c0.191,0.344,0.342,0.699,0.488,1.048c0.149,0.353,0.299,0.698,0.444,1.042
							c0.142,0.347,0.299,0.681,0.417,1.022c0.117,0.346,0.232,0.684,0.344,1.019c0.112,0.335,0.221,0.665,0.327,0.99
							c0.107,0.325,0.224,0.643,0.294,0.966c0.162,0.641,0.32,1.26,0.469,1.855c0.07,0.295,0.143,0.586,0.213,0.869
							c0.051,0.288,0.104,0.568,0.154,0.843c0.094,0.547,0.186,1.065,0.266,1.554c0.186,0.97,0.25,1.835,0.324,2.54
							c0.072,0.704,0.109,1.26,0.142,1.636c0.026,0.378,0.038,0.58,0.038,0.58s-0.065-0.192-0.193-0.551
							c-0.12-0.359-0.307-0.883-0.52-1.552c-0.215-0.669-0.463-1.484-0.807-2.397c-0.164-0.458-0.338-0.945-0.519-1.457
							c-0.09-0.256-0.184-0.52-0.277-0.79c-0.106-0.264-0.215-0.534-0.33-0.811c-0.216-0.55-0.444-1.124-0.68-1.72
							c-0.232-0.594-0.529-1.181-0.803-1.797c-0.139-0.307-0.278-0.617-0.42-0.934c-0.141-0.313-0.322-0.613-0.48-0.928
							c-0.162-0.311-0.328-0.625-0.492-0.94c-0.164-0.32-0.326-0.643-0.526-0.944c-0.191-0.309-0.38-0.618-0.572-0.933l-0.284-0.472
							l-0.143-0.238l-0.162-0.223c-0.217-0.299-0.432-0.602-0.649-0.903c-0.22-0.301-0.417-0.622-0.669-0.895
							c-0.24-0.285-0.482-0.569-0.723-0.858c-0.122-0.141-0.238-0.29-0.365-0.425l-0.396-0.398l-0.79-0.794
							c-0.276-0.252-0.571-0.475-0.854-0.716c-0.549-0.512-1.189-0.881-1.789-1.311c-0.314-0.189-0.643-0.354-0.959-0.539
							c-0.158-0.089-0.314-0.185-0.477-0.267l-0.5-0.217c-0.336-0.137-0.661-0.308-1.002-0.418c-0.342-0.116-0.682-0.23-1.021-0.347
							c-0.337-0.113-0.689-0.172-1.033-0.261c-0.173-0.043-0.344-0.085-0.516-0.127c-0.174-0.026-0.35-0.054-0.521-0.081
							c-0.346-0.047-0.688-0.131-1.033-0.148c-0.347-0.029-0.689-0.059-1.029-0.089c-0.342-0.021-0.682-0.013-1.017-0.023
							c-0.335-0.014-0.667,0-0.995,0.019c-1.314,0.037-2.564,0.211-3.716,0.42c-1.156,0.199-2.202,0.484-3.129,0.739
							c-0.927,0.272-1.733,0.532-2.389,0.771c-0.652,0.25-1.171,0.439-1.52,0.589C197.118,201.943,196.934,202.023,196.934,202.023z
							"/>
					</g>
					<path style="fill:#C6C6C6;" d="M193.993,204.668c0,0-0.272,0.143-0.72,0.491c-0.445,0.348-1.059,0.911-1.731,1.707
						c-0.673,0.794-1.377,1.849-2.028,3.127c-0.635,1.289-1.211,2.806-1.637,4.519c-0.422,1.712-0.721,3.605-0.859,5.63
						c-0.129,2.024-0.119,4.171,0.01,6.39c0.13,2.33,0.202,4.643,0.26,7.044c0.057,2.39,0.117,4.818,0.174,7.247
						c0.028,2.428,0.058,4.856,0.085,7.248c0.027,2.39,0,4.743,0.004,7.021c0.009,2.275-0.047,4.479-0.075,6.566
						c-0.02,2.089-0.085,4.063-0.135,5.887c-0.102,3.645-0.251,6.684-0.369,8.812c-0.118,2.129-0.217,3.346-0.217,3.346
						s-0.146-1.213-0.344-3.333c-0.197-2.124-0.458-5.154-0.694-8.794c-0.118-1.82-0.257-3.792-0.354-5.876
						c-0.105-2.086-0.241-4.287-0.316-6.56c-0.08-2.277-0.197-4.627-0.258-7.018c-0.061-2.391-0.123-4.82-0.183-7.246
						c-0.033-2.429-0.066-4.857-0.095-7.248c-0.051-2.379-0.008-4.772-0.04-6.994c-0.019-0.58-0.019-1.16-0.006-1.734
						c0.001-0.572,0.021-1.141,0.052-1.701c0.063-1.125,0.182-2.223,0.33-3.285c0.145-1.066,0.345-2.096,0.566-3.084
						c0.254-0.982,0.523-1.926,0.851-2.811c0.62-1.777,1.424-3.326,2.278-4.595c0.85-1.272,1.76-2.258,2.581-2.97
						c0.814-0.725,1.56-1.16,2.067-1.431C193.699,204.758,193.993,204.668,193.993,204.668z"/>
					<path style="fill:#C6C6C6;" d="M187.928,207.424c0,0-0.254,0.132-0.668,0.457c-0.416,0.322-0.986,0.845-1.611,1.586
						c-0.625,0.738-1.279,1.719-1.886,2.905c-0.59,1.198-1.126,2.609-1.522,4.201c-0.393,1.591-0.67,3.351-0.798,5.232
						c-0.118,1.881-0.108,3.876,0.01,5.939c0.122,2.163,0.189,4.314,0.241,6.546c0.054,2.222,0.107,4.48,0.161,6.736
						c0.028,2.257,0.053,4.514,0.083,6.736c0.021,2.222-0.003,4.408,0,6.524c0.008,2.117-0.042,4.164-0.068,6.106
						c-0.019,1.94-0.08,3.775-0.128,5.469c-0.095,3.388-0.23,6.215-0.343,8.191c-0.045,0.99-0.113,1.766-0.145,2.297
						c-0.037,0.529-0.058,0.811-0.058,0.811s-0.029-0.282-0.086-0.81c-0.051-0.527-0.147-1.302-0.23-2.288
						c-0.186-1.973-0.426-4.792-0.645-8.172c-0.111-1.692-0.241-3.526-0.331-5.464c-0.098-1.938-0.227-3.981-0.293-6.096
						c-0.078-2.116-0.184-4.301-0.24-6.522c-0.059-2.222-0.115-4.478-0.172-6.735c-0.029-2.257-0.059-4.514-0.087-6.736
						c-0.048-2.21-0.008-4.434-0.04-6.502c-0.049-2.164,0.064-4.268,0.353-6.246c0.134-0.988,0.319-1.944,0.526-2.863
						c0.237-0.914,0.484-1.791,0.79-2.613c0.575-1.652,1.323-3.092,2.118-4.271c0.79-1.182,1.635-2.096,2.402-2.76
						c0.753-0.672,1.445-1.078,1.916-1.328C187.654,207.506,187.928,207.424,187.928,207.424z"/>
				</g>
				<g>
					<path style="fill:#BE7500;" d="M262.445,229.549c0.025,1.325-1.035,2.421-2.367,2.445l0,0c-1.334,0.025-2.434-1.03-2.458-2.354
						l0,0c-0.023-1.327,1.035-2.422,2.368-2.446l0,0C261.32,227.17,262.42,228.225,262.445,229.549L262.445,229.549z"/>
					<g>
						<path style="fill:#464F5B;" d="M240.707,223.05c-0.064-3.389,2.646-6.185,6.053-6.247l0,0c3.404-0.064,6.217,2.63,6.279,6.019
							l0.256,13.801c0.063,3.387-2.646,6.184-6.053,6.248l0,0c-3.406,0.063-6.218-2.633-6.281-6.019L240.707,223.05z"/>
						<path style="fill:#C6C6C6;" d="M248.142,223.242c2.73,3.244,3.162,7.064,2.479,11.125c-0.587,3.479-3.104,7.028-6.712,7.597
							c0.969,0.593,2.112,0.929,3.334,0.906c3.406-0.064,6.116-2.861,6.053-6.248l-0.256-13.801
							c-0.063-3.389-2.875-6.083-6.279-6.019c-2.663,0.049-4.895,1.77-5.714,4.139C243.648,220.573,246.374,221.135,248.142,223.242
							z"/>
						<path style="opacity:0.5;fill:#FFFFFF;" d="M242.889,223.008c-0.006-0.352,0.276-0.643,0.631-0.648l0,0
							c0.355-0.008,0.646,0.271,0.652,0.626l0.29,15.59c0.007,0.353-0.274,0.646-0.629,0.651l0,0
							c-0.355,0.006-0.647-0.274-0.655-0.628L242.889,223.008z"/>
					</g>
					<g>
						<path style="fill:#F9B233;" d="M252.162,220.338l0.348,18.798c4.123-1.219,7.092-5.048,7.01-9.53
							C259.436,225.121,256.322,221.403,252.162,220.338z"/>
						<path style="fill:#DADADA;" d="M256.666,233.25c-3.176-1.955-4.033-4.784-4.416-8.2l0.26,14.086
							c2.664-0.786,4.84-2.672,6.031-5.112C257.885,233.86,257.252,233.609,256.666,233.25z"/>
					</g>
					
						<path style="fill:none;stroke:#2C343F;stroke-width:2.3067;stroke-linecap:round;stroke-linejoin:round;stroke-miterlimit:10;" d="
						M255.492,234.792c0,0,4.143,32.157-29.785,31.872"/>
					<path style="fill:#232A33;" d="M226.932,266.768c0.029,1.553-1.215,2.835-2.773,2.863l-3.792,0.07
						c-1.563,0.028-2.852-1.206-2.881-2.758l0,0c-0.028-1.553,1.213-2.836,2.773-2.865l3.795-0.069
						C225.613,263.98,226.903,265.215,226.932,266.768L226.932,266.768z"/>
					<path style="fill:#BE7500;" d="M165.549,231.346c0.023,1.326,1.123,2.38,2.455,2.355l0,0c1.334-0.025,2.395-1.12,2.369-2.444
						l0,0c-0.025-1.325-1.125-2.38-2.457-2.355l0,0C166.584,228.925,165.523,230.02,165.549,231.346L165.549,231.346z"/>
					<g>
						<path style="fill:#464F5B;" d="M187.033,224.045c-0.063-3.387-2.875-6.083-6.28-6.02l0,0
							c-3.407,0.064-6.116,2.859-6.054,6.248l0.256,13.803c0.063,3.385,2.874,6.08,6.281,6.016l0,0
							c3.405-0.061,6.115-2.859,6.052-6.246L187.033,224.045z"/>
						<path style="fill:#C6C6C6;" d="M179.605,224.511c-2.602,3.345-2.895,7.177-2.063,11.21c0.713,3.457,3.363,6.909,6.988,7.344
							c-0.945,0.629-2.074,1.008-3.295,1.027c-3.407,0.064-6.219-2.631-6.281-6.016l-0.256-13.803
							c-0.063-3.389,2.646-6.184,6.054-6.248c2.661-0.049,4.954,1.589,5.86,3.925C184.002,221.679,181.297,222.341,179.605,224.511z
							"/>
						<path style="opacity:0.5;fill:#FFFFFF;" d="M184.848,224.085c-0.005-0.353-0.3-0.633-0.654-0.626l0,0
							c-0.354,0.006-0.636,0.297-0.63,0.649l0.29,15.59c0.007,0.354,0.3,0.634,0.652,0.628l0,0c0.355-0.008,0.638-0.298,0.631-0.651
							L184.848,224.085z"/>
					</g>
					<g>
						<path style="fill:#F9B233;" d="M175.484,221.758l0.348,18.799c-4.162-1.063-7.275-4.782-7.358-9.265
							C168.391,226.81,171.362,222.979,175.484,221.758z"/>
						<path style="fill:#DADADA;" d="M171.458,234.83c3.103-2.072,3.855-4.932,4.113-8.359l0.261,14.086
							c-2.691-0.688-4.938-2.489-6.215-4.885C170.265,235.484,170.886,235.211,171.458,234.83z"/>
					</g>
				</g>
			</g>
		</g>
	</g>
	<path style="fill:#C6C6C6;" d="M261.229,290.087c-22.861-4.358-44.07-15.751-58.987-33.83
		c-7.612-9.226-13.624-19.495-18.122-30.568c-5.558-13.69-10.543-27.742-13.279-42.299c-1.984-10.548-2.849-21.196-2.326-31.841
		h-2.982c-2.452,0-4.436,1.984-4.436,4.434V315.68c0,2.448,1.984,4.434,4.436,4.434h94.141c2.447,0,4.434-1.985,4.434-4.434v-25.089
		C263.147,290.435,262.188,290.271,261.229,290.087z"/>
</g>
</svg>
